<svg xmlns="http://www.w3.org/2000/svg" viewBox="0 0 300 287" height="287pt" width="400" version="1">
  <g class="Animate-Draw">
    <path d="M123.456445 11.427515c-2.2.7-6.7 1.75-10 2.35-14.15 2.6-30.35 13.95-37.6 26.3-2.25 3.85-4.7 7.2-5.5 7.55-1.75.65-8.05 13.8-10 20.8-2.4 8.45-2 31.8.55 36.15 1.1 1.9 2.05 5 2.05 6.9 0 1.9.45 5.35 1 7.7.55 2.35 1.9 11.9 3 21.25 4.15 34.7 7.65 44.65 20.65 58.45l7.65 8.1-2.85 5.25c-9.2 17-9.95 17.45-27.4 18.7-9.55.65-13.15 1.35-17.55 3.4-7.94999 3.6-21.099992 16.60002-16.849992 16.60002.4 0 3.500002-2.7 6.950007-6.05 8.699985-8.30002 14.599985-10.85002 28.099985-11.95002 5.95-.45 12.1-1.35 13.65-1.95 2.4-.9 2.8-.85 2.3.4-.75 2-19.5 32.45002-21.8 35.45002-2.9 3.7-1.75 3.65 10-.45l10.9-3.8 10.85 6.35c6 3.5 13.4 8 16.4 10.05 14.45 9.6999991 21 11.94999875 25.4 8.6 1.7-1.3 7.95-4.95 13.85-8.1l10.75-5.75 16.75 4.05c24.3 5.85 22.85 5.65 24.6 2.95.8-1.25 3.3-9.4 5.55-18.1 2.25-8.65 5.65-19.90002 7.55-25.00002 1.85-5.05 3.7-10.55 4.05-12.2 1.3-5.85 1.3-5.85 6-1.7 2.6 2.3 8.6 5.7 14.25 8.15 13.25 5.7 18 8.55 23 13.85002 4.5 4.75 7 5.05 3.6.45-3.65-4.90002-11.45-10.00002-23.55-15.30002-13.75-6-21.15-11.8-22.75-17.85-.55-2.05-4-8.65-7.65-14.6-11.05-18.3-11.9-19.3-17.2-20.85-2.6-.75-4.7-1.75-4.65-2.25.4-9.2 3.05-19.4 5-19.4 9.05 0 12.85-9.55 12.9-32.35l.05-16.85-2.85-2.45c-2.75-2.35-2.9-2.9-3.1-11.65-.4-16.6-2.1-26.3-5.45-31.55-1.7-2.7-3.65-7.7-4.45-11.5-.8-3.75-2.35-7.75-3.4-8.95-1.1-1.2-2.8-3.95-3.8-6.1-1.4-3-2.9-4.35-6.9-6.1-2.75-1.25-5.9-3.2-6.95-4.4-1.05-1.15-2.45-2.1-3.1-2.1-.65 0-2.25-.9-3.5-2s-3.05-2-4-2c-.95 0-2.55-.95-3.6-2.15-4.75-5.35-20.55-7.6-30.9-4.35zm36.3 35.4c1.15.6 4.3 1.1 7 1.1 6.1 0 10.15 7.75 10.2 19.5 0 2.3.85 5.25 2 7 1.35 2 1.8 3.9 1.45 5.7-.35 1.6.1 4 1.15 6 1.45 2.8 4.35 12 4.4 13.9 0 1.65-9.45 3.2-18.45 3.05-10.7-.2-29.7 2.5-42.55 6.05-6.8 1.85-8.35 1.95-16.7.95-11.25-1.4-25.5-1.45-34.7-.1-8.35 1.2-7.85 1.7-8.35-7.8-1.1-18.85 4.6-41.7 12.9-51.6l3.2-3.9 6.05.65c3.35.35 8.5 1.25 11.45 2.05 3.85 1.05 6.1 1.15 8 .4 1.5-.55 5.45-.7 9.3-.35 5.1.55 7.3.3 9.7-.9 6.6-3.45 28.7-4.55 33.95-1.7zm39.9 58.1c4.65.05 6.3 28.7 2.2 38-1.8 4.1-1.9 4.2-1.45 1.2.3-2.05.15-3.05-.45-2.7-.55.35-1 1.4-1 2.35 0 2.7-2.9 6.15-5.3 6.25-1.75.1-1.85.2-.4.6 1 .25 2.9-.25 4.25-1.15 2-1.3 2.45-1.35 2.45-.2 0 1.8-6.6 5-8.65 4.2-2-.75-.9-12.6 1.25-13.85.8-.45 1.4-1.65 1.4-2.7 0-1.25.85-1.95 2.65-2.2 5.15-.6 5.85-4.7.85-5.1-2.45-.2-2.9.3-4.35 4.8l-1.65 5-.3-12.9c-.3-15.5 1.45-23.2 5.15-22.2 1.2.3 2.7.6 3.35.6zm-33.25 1c3.6 1.35 4.05 3.25 2.85 11.7-1.65 11.25-5.75 13.6-23.8 13.65-10.8 0-13.45-1.45-17.55-9.75-3.55-7.2-3.35-9.8.85-11.45 7.35-2.85 17.8-4.45 11.7-1.75-1.7.7-4.25 2.9-5.7 4.8l-2.7 3.5 5.2 1.15c8.6 1.85 18.65-.25 25.2-5.35 1.7-1.35 1.8-1.7.5-2.55-3.65-2.45-5.75-3.35-9-4-2.85-.6-2.2-.75 3.2-.85 3.65-.05 7.85.35 9.25.9zm21.3 18.65c-.45 16.65-.5 17-4.45 27.75-3.7 10.1-12.45 23.6-15.3 23.6-.4 0-1.95 1.15-3.5 2.6l-2.8 2.6.7-10.1c1.15-16.65-4.35-18.85-26.95-10.55-9.25 3.35-10.45 3.55-16.95 2.9-20.6-2.2-30.2 3.15-26.15 14.45 3.05 8.55 2.3 10.45-2.65 6.7-1.75-1.3-4.8-2.85-6.8-3.5-7.75-2.5-9.4-7.1-12.85-35.3-2.45-19.95-2.45-20.25-.1-15.8 3.65 6.9 5 7.5 17.4 7.5 17.8 0 22.95-3.05 25.65-15 2.3-10.25 7.5-10.8 11.8-1.25 5.15 11.35 13.45 14.55 30.6 11.8 12.55-2.05 16.6-5.4 16.6-13.9 0-4.05 3.4-7.9 9.4-10.6 6.9-3.1 6.9-3.05 6.35 16.1zm-28.4-13.65c.5.45-.5 1.55-2.2 2.4-4.05 2.1-4.15 2.1-4.15-1.5 0-3.15 3.55-3.65 6.35-.9zm-14.85 2c0 2.85-.2 3-4 2.95h-4l3.25-3c4.1-3.7 4.75-3.7 4.75.05zm-35.15-.15c.9.8 1.65 2.55 1.65 3.95v2.6l-3.5-3.4c-6.65-6.45-27.5-4.25-27.5 2.85 0 4.1 17.65 6 25.4 2.75 6.45-2.7 6.8-2.2 3.5 5.4-2.85 6.6-6.45 8-20.35 8-12.7 0-13.1-.15-16-5.85-5.75-11.4-5.1-16.6 2.2-17.45 8.8-1.05 32.95-.2 34.6 1.15zm-19.15 5.15c.5 3.4-1.4 4.05-4.7 1.65-1.7-1.25.3-3.5 4.15-4.6.05-.05.3 1.3.55 2.95zm13.95-1.1c2.7 2.2 2.5 2.6-1.8 3.4-2.9.55-3.15.35-3.55-2.35-.55-3.55 1.7-4 5.35-1.05zm53.25 50.1c-.7 27.35-11.4 41-32.15 41-11.8 0-28-12.35-26.9-20.5.3-2.3-.05-6.5-.8-9.4-2.05-7.75 0-9.65 9.3-8.45 10 1.3 16.85.85 25.15-1.65 20.55-6.2 25.55-6.4 25.4-1zm31.5 31.3l2 5.75-4.4 9.25c-10.95 23.05-24.6 42.25002-43.25 60.95002-14.75 14.79999875-14.3 14.6999988-20.5 5.95-2.6-3.7-8.3-10.65-12.7-15.5-9.85-10.95-9.45-9.35-8.55-31.30002l.7-18.25 5.95 6.35c19.6 20.95 53.2 4.55 72.65-35.4l4.7-9.7.7 8.05c.35 4.45 1.6 10.65 2.7 13.85zm18.05.65c4.45 7.35 8.1 14.55 8.2 16 .35 5.9-.55 10.05-3.9 19.05-2 5.2-5.65 17.35002-8.2 27.00002l-4.55 17.45-4.5-.3c-7.15-.45-18.85-3-27.05-5.85-8.85-3.1-10.2-2.9-19 2.8l-6.45 4.1 8.55-8.85c22.9-23.7 46.95-66.20002 46.95-82.95002 0-4.95.3-4.6 9.95 11.55zm-109 34.85c.05 20.25002.35 21.20002 8.75 30.30002 7.7 8.3 17.4 20.15 16.9 20.65-1.05 1.05-12.75-6.3-36.4-22.9-5.85-4.1-5.8-4.1-16.2 1.15-8.4 4.2-8.5 3.8-1.65-6.65 6.7-10.25 26.55-45.00002 26.75-46.80002.6-5.3 1.8 10.55 1.85 24.25z M131.725 95.9125c-4.85.95-9.1 4.25-9.1 7.05 0 2.2 1.6 2.35 6.15.45 3.6-1.5 22.7-4.6 28.4-4.6 3.8 0 4.5-1.35 1.5-2.95-2.25-1.25-20.65-1.2-26.95.05zm-55.5 3.05c-7.1.7-11.6 2.55-11.6 4.75 0 .35 7.1.75 15.7.95 8.65.15 16.55.75 17.5 1.25 2.15 1.15 6.15-.6 5.55-2.4-1.35-4.05-12.65-5.95-27.15-4.55zm112.4 9.4c-1.35 3.55-1.25 5.7.25 5.2.7-.2 1.4-1.65 1.55-3.15.65-5.15 3.75-2.8 3.55 2.7-.2 5.85 1.2 6.2 1.95.5 1-7.3-4.95-11.5-7.3-5.25zm-78 13.7c0 2.9-.9 9-2 13.55-2.15 9.05-2.55 16.3-1.05 19.15 1.4 2.55 6.85 4.65 8.3 3.2.85-.85.65-1.15-.85-1.15-7.05 0-8.1-5.25-4.25-20.9 2-8.2 2.8-13.5 2.4-15.75-1-5.15-2.55-4-2.55 1.9zm22.3875 27.2125c.8 2.1-1.05 3.3-5.05 3.35-1.8 0-3.85.85-4.9 2-2.5 2.8.5 2.75 6.85-.05 5.5-2.45 7.75-6.95 3.45-6.95-.55 0-.75.75-.35 1.65zm19.875 1.6375c-.3.5.1.9.9.9.85 0 2.85 1.1 4.45 2.5 4.1 3.4 5.2 3.15 1.8-.4-3-3.1-6.25-4.5-7.15-3zM88 162.775c-1.65 1.35-2.7 2.75-2.3 3.1.35.4 2.15-.7 4-2.4 3.9-3.65 2.65-4.15-1.7-.7zm47.3125 7.5c-12.95 3.4-14 3.55-25.6 3-14.85-.7-14.45-1.15-7.4 8.15 8.35 11.15 9 11.6 17 12.05 12.65.7 20.8-3.9 30.65-17.2 8-10.85 6.3-11.55-14.65-6zm16-.25c0 2.3-7.9 8.45-15.95 12.4-10.4 5.15-19.1 5.3-26.7.45-8.7-5.6-11.2-9.75-4.05-6.75 7.3 3.05 18.65 2.05 32.7-2.9 14.75-5.15 14-4.95 14-3.2z"/>
  </g>
</svg>